<svg width="32" height="32" viewBox="0 0 32 32" fill="none" xmlns="http://www.w3.org/2000/svg">
<path fill-rule="evenodd" clip-rule="evenodd" d="M15 6C11.134 6 8 9.13401 8 13C8 16.866 11.134 20 15 20C18.866 20 22 16.866 22 13C22 9.13401 18.866 6 15 6ZM6 13C6 8.02944 10.0294 4 15 4C19.9706 4 24 8.02944 24 13C24 15.3869 23.0708 17.5567 21.5545 19.1676C21.6084 19.2036 21.6595 19.2453 21.7071 19.2929L26.7071 24.2929C27.0976 24.6834 27.0976 25.3166 26.7071 25.7071C26.3166 26.0976 25.6834 26.0976 25.2929 25.7071L20.2929 20.7071C20.2076 20.6218 20.1409 20.5249 20.0929 20.4215C18.6446 21.4172 16.8904 22 15 22C10.0294 22 6 17.9706 6 13ZM16.9893 7.33936C15.5458 6.83209 13.963 6.89544 12.5647 7.51644C12.06 7.7406 11.8325 8.3315 12.0567 8.83625C12.2808 9.341 12.8717 9.56846 13.3765 9.34429C14.3087 8.93029 15.3638 8.88806 16.3262 9.22624C17.2885 9.56441 18.0853 10.2574 18.5535 11.1636C18.8071 11.6542 19.4104 11.8464 19.901 11.5929C20.3917 11.3393 20.5839 10.7361 20.3303 10.2454C19.6279 8.88617 18.4327 7.84662 16.9893 7.33936Z" fill="#9A9CB5"/>
</svg>
